<svg width="60" height="60" viewBox="0 0 60 60" fill="none" xmlns="http://www.w3.org/2000/svg">
<rect width="60" height="60" rx="10" fill="white"/>
<path d="M8.78906 60H28.3594V38.6719H21.3281V31.6406H28.3594V22.8516C28.3594 18.0052 32.3021 14.0625 37.1484 14.0625H45.9375V21.0938H38.9062C36.9676 21.0938 35.3906 22.6707 35.3906 24.6094V31.6406H45.6203L44.4484 38.6719H35.3906V60H51.2109C56.0573 60 60 56.0573 60 51.2109V8.78906C60 3.94272 56.0573 0 51.2109 0H8.78906C3.94272 0 0 3.94272 0 8.78906V51.2109C0 56.0573 3.94272 60 8.78906 60ZM3.51562 8.78906C3.51562 5.88135 5.88135 3.51562 8.78906 3.51562H51.2109C54.1187 3.51562 56.4844 5.88135 56.4844 8.78906V51.2109C56.4844 54.1187 54.1187 56.4844 51.2109 56.4844H38.9062V42.1875H47.4266L49.7704 28.125H38.9062V24.6094H49.4531V10.5469H37.1484C30.3635 10.5469 24.8438 16.0666 24.8438 22.8516V28.125H17.8125V42.1875H24.8438V56.4844H8.78906C5.88135 56.4844 3.51562 54.1187 3.51562 51.2109V8.78906Z" fill="#34424B" fill-opacity="0.9"/>
<path d="M35.8906 31.1406V24.6094C35.8906 22.9469 37.2438 21.5938 38.9062 21.5938H45.9375H46.4375V21.0938V14.0625V13.5625H45.9375H37.1484C32.026 13.5625 27.8594 17.7291 27.8594 22.8516V31.1406H21.3281H20.8281V31.6406V38.6719V39.1719H21.3281H27.8594V59.5H8.78906C4.21886 59.5 0.5 55.7811 0.5 51.2109V8.78906C0.5 4.21886 4.21886 0.5 8.78906 0.5H51.2109C55.7811 0.5 59.5 4.21886 59.5 8.78906V51.2109C59.5 55.7811 55.7811 59.5 51.2109 59.5H35.8906V39.1719H44.4484H44.872L44.9416 38.7541L46.1135 31.7228L46.2105 31.1406H45.6203H35.8906ZM38.4062 56.4844V56.9844H38.9062H51.2109C54.3948 56.9844 56.9844 54.3948 56.9844 51.2109V8.78906C56.9844 5.60521 54.3948 3.01562 51.2109 3.01562H8.78906C5.60521 3.01562 3.01562 5.60521 3.01562 8.78906V51.2109C3.01562 54.3948 5.60521 56.9844 8.78906 56.9844H24.8438H25.3438V56.4844V42.1875V41.6875H24.8438H18.3125V28.625H24.8438H25.3438V28.125V22.8516C25.3438 16.3427 30.6396 11.0469 37.1484 11.0469H48.9531V24.1094H38.9062H38.4062V24.6094V28.125V28.625H38.9062H49.1801L47.003 41.6875H38.9062H38.4062V42.1875V56.4844Z" stroke="#34424B" stroke-opacity="0.9"/>
</svg>
